<?xml version="1.0" encoding="utf-8"?>
<!-- Generated by IcoMoon.io -->
<!DOCTYPE svg PUBLIC "-//W3C//DTD SVG 1.1//EN" "http://www.w3.org/Graphics/SVG/1.1/DTD/svg11.dtd">
<svg version="1.1" xmlns="http://www.w3.org/2000/svg" xmlns:xlink="http://www.w3.org/1999/xlink" width="1285" height="512" viewBox="0 0 1285 512">
<g id="icomoon-ignore">
</g>
<path d="M554.567 224.058c0.019-0.081 0.033-0.137 0.037-0.167l0.097-0.704-4.415-0.025c-3.989-0.024-5.208 0.001-5.317 0.101-0.053 0.049-1.431 5.28-3.885 14.755-1.171 4.52-2.157 8.13-2.189 8.022s-1.435-5.267-3.114-11.466c-1.679-6.198-3.087-11.304-3.129-11.346-0.058-0.058-5.404-0.083-9.735-0.048-0.628 0.006-0.977-1.222 5.595 19.684 0.91 2.894 2.272 6.992 3.028 9.107 0.871 2.437 1.49 4.32 1.915 5.889 0.75 2.99 0.777 4.863 0.613 7.050-0.188 2.527-0.217 20.365-0.033 20.663 0.141 0.229 8.505 0.336 9.295 0.118 0.127-0.036 0.211-0.159 0.268-0.832 0.197-0.58 0.214-2.887 0.214-12.47v-12.24l0.535-1.688c0.351-1.105 1.231-4.009 1.957-6.453s1.605-5.371 1.952-6.504c3.154-10.286 6.167-20.402 6.246-20.978l0.066-0.472z"></path>
<path d="M601.38 238.906l-0.003 0.637-0.1 0.001-0.056 17.62-0.053 17.082-1.367 1.392c-1.531 1.56-2.758 2.154-3.868 1.876-1.208-0.304-1.178 0.168-1.279-20.023l-0.093-18.584h-8.793v0.638h-0.101v20.165c0 21.606-0.001 21.592 1.096 23.762 0.874 1.729 2.146 2.57 4.326 2.86h0.001c2.87 0.382 5.967-0.919 8.835-3.712l1.247-1.214v2.094c0 1.808 0.052 2.107 0.38 2.199 0.537 0.149 7.194 0.16 7.914 0.012l0.596-0.123v-0.618l0.101-0.021v-46.159l-8.781 0.118z"></path>
<path d="M579.076 248.012c-0.833-3.576-2.395-5.977-4.962-7.639-4.036-2.611-8.644-2.887-12.922-0.774-3.116 1.54-5.122 4.095-6.159 7.839-0.124 0.446-0.214 0.821-0.283 1.381-0.264 1.322-0.295 3.297-0.362 12.489-0.105 14.165 0.058 15.849 1.831 19.066 1.741 3.156 5.352 5.469 9.284 5.946 1.184 0.144 3.583-0.080 4.962-0.463 3.136-0.87 6.14-3.348 7.468-6.161 0.574-1.216 0.92-2.060 1.13-3.604 0.389-2.108 0.417-5.517 0.417-14.206-0.001-11.083-0.035-12.294-0.404-13.877zM569.049 276.884c-0.737 0.562-2.026 0.807-3.076 0.583-0.807-0.172-1.897-1.438-2.231-2.592-0.418-1.44-0.449-21.442-0.090-25.364 0.595-1.963 2.255-2.989 4.069-2.5 1.414 0.381 2.137 1.266 2.549 3.119 0.306 1.376 0.343 3.089 0.277 13.171-0.043 6.684-0.067 9.951-0.286 11.707-0.223 1.106-0.589 1.404-1.213 1.879z"></path>
<path d="M736.963 258.064h4.249l-0.068-3.849c-0.066-3.53-0.118-3.935-0.591-4.892-0.745-1.512-1.843-2.182-3.585-2.182-2.093 0-3.419 1.012-4.045 3.089-0.266 0.885-0.547 6.963-0.346 7.487 0.112 0.293 0.721 0.346 4.384 0.346z"></path>
<path d="M708.565 249.31c-0.567-1.143-1.621-1.705-2.846-1.66-0.953 0.034-2.011 0.436-3.029 1.213l-0.759 0.576v27.652l0.759 0.575c1.718 1.31 3.606 1.588 4.905 0.718 0.515-0.344 0.85-0.818 1.111-1.572 0.34-0.982 0.37-2.238 0.325-13.871-0.046-12.125-0.073-12.839-0.467-13.633z"></path>
<path d="M761.249 236.853c-0.847-10.148-1.52-13.44-3.613-17.671-2.771-5.602-6.777-8.558-12.482-9.206-4.411-0.502-21.006-1.21-36.365-1.55-26.588-0.59-70.302 0.547-75.885 1.975-2.581 0.66-4.515 1.781-6.528 3.786-3.529 3.511-5.63 8.547-6.475 15.512-1.93 15.905-1.971 35.123-0.111 51.606 0.801 7.089 2.447 11.696 5.538 15.491 1.93 2.37 5.253 4.382 8.229 4.981 2.087 0.423 12.533 1.007 27.746 1.554 2.266 0.082 8.266 0.221 13.336 0.312 10.563 0.188 29.986 0.077 41.089-0.235 7.47-0.209 21.090-0.762 23.634-0.959 0.716-0.055 2.375-0.161 3.687-0.235 4.408-0.248 7.212-1.173 9.845-3.241 3.408-2.678 6.047-7.626 7.161-13.428 1.056-5.49 1.76-15.268 1.904-26.37 0.12-9.276-0.040-14.28-0.711-22.322zM655.375 233.176l-4.939 0.061-0.217 52.688-4.283 0.055c-3.313 0.046-4.318-0.004-4.398-0.217-0.058-0.152-0.127-12.029-0.155-26.399l-0.055-26.127-9.648-0.123v-8.232l28.513 0.115 0.122 8.118-4.939 0.061zM685.668 263.375v22.659h-7.806v-2.386c0-1.795-0.068-2.386-0.279-2.386-0.153 0-0.861 0.592-1.572 1.315-1.544 1.568-3.373 2.832-4.932 3.415-3.232 1.21-6.302 0.503-7.61-1.748-1.197-2.062-1.221-2.522-1.221-23.899v-19.63h7.798l0.061 18.484c0.058 18.163 0.067 18.496 0.502 19.237 0.577 0.981 1.456 1.245 2.852 0.861 0.823-0.226 1.384-0.625 2.717-1.952l1.681-1.673v-34.956h7.806v22.659zM716.113 282.795c-0.688 1.531-2.22 3.031-3.476 3.401-3.279 0.969-5.909 0.18-8.944-2.677-0.942-0.886-1.819-1.606-1.952-1.606-0.16 0-0.244 0.695-0.244 2.060v2.060h-7.806v-61.145h7.806v9.974c0 5.486 0.073 9.974 0.163 9.974s0.913-0.728 1.83-1.613c2.11-2.036 3.874-2.928 6.111-3.097 3.991-0.303 6.37 1.753 7.46 6.444 0.34 1.464 0.373 3.135 0.373 16.696-0.001 16.519-0.003 16.587-1.322 19.528zM749.139 273.729c-0.070 1.699-0.275 3.649-0.462 4.337-1.086 4.026-3.976 6.873-8.151 8.043-5.624 1.575-11.813-1.005-14.283-5.949-1.387-2.776-1.437-3.329-1.437-16.892 0-11.059 0.040-12.416 0.393-13.925 1.002-4.27 3.487-7.032 7.691-8.565 1.219-0.445 2.491-0.672 3.761-0.698 4.538-0.093 9.042 2.349 10.929 6.321 1.274 2.681 1.432 3.829 1.559 11.384l0.115 6.776-16.64 0.115-0.061 4.553c-0.087 6.423 0.346 8.399 2.080 9.567 1.459 0.983 3.7 0.909 4.918-0.163 1.144-1.005 1.466-2.083 1.579-5.231l0.101-2.765h8.035l-0.129 3.091z"></path>
</svg>
